<?xml version="1.0" encoding="UTF-8" standalone="no"?><!DOCTYPE svg PUBLIC "-//W3C//DTD SVG 1.1//EN" "http://www.w3.org/Graphics/SVG/1.1/DTD/svg11.dtd"><svg width="100%" height="100%" viewBox="0 0 1920 640" version="1.1" xmlns="http://www.w3.org/2000/svg" xmlns:xlink="http://www.w3.org/1999/xlink" xml:space="preserve" xmlns:serif="http://www.serif.com/" style="fill-rule:evenodd;clip-rule:evenodd;stroke-linecap:round;stroke-linejoin:round;stroke-miterlimit:1.5;"><g id="Green-tea" serif:id="Green tea"><g id="Base-chart" serif:id="Base chart"><path id="Y-Axis" serif:id="Y Axis" d="M137.356,88.655c0,133.591 1.364,265.307 1.364,400.843" style="fill:none;stroke:#000;stroke-width:1.5px;"/><path id="X-Axis" serif:id="X Axis" d="M990.774,490.282c-283.764,0 -563.547,0.123 -851.443,0.123" style="fill:none;stroke:#000;stroke-width:1.5px;"/><path id="Under-line" serif:id="Under line" d="M164.421,183.263c3.586,0 5.21,2.9 8.554,6.308c2.915,2.972 15.126,13.27 18.741,15.719c2.783,1.884 22.782,17.22 24.853,18.827c8.199,6.362 12.751,9.507 19.82,15.277c0.93,0.759 36.783,26.07 43.647,29.201c5.761,2.627 31.036,15.814 55.971,26.349c16.761,7.082 34.694,12.402 41.462,14.632c20.009,6.594 37.712,11.51 58.375,13.579c27.048,2.709 106.69,18.499 166.591,31.174c6.508,1.377 12.848,2.834 18.884,4.274c21.028,5.016 38.373,9.824 46.338,10.335c4.092,0.262 65.874,12.112 84.07,16.918c6.394,1.688 32.346,6.828 38.423,9.065c8.773,3.23 79.524,19.989 87.487,24.843c1.264,0.77 75.634,18.678 75.634,18.918" style="fill:none;stroke:#000;stroke-width:1.5px;stroke-dasharray:1.5,7.5,0,0;"/><path id="Middle-line" serif:id="Middle line" d="M164.747,183.013c1.747,0 5.708,3.962 9.716,5.82c7.7,3.57 18.36,10.975 31.968,18.38c19.969,10.865 45.515,23.235 71.046,35.85c57.107,28.218 111.415,32.742 116.083,32.853c16.448,0.392 62.758,2.789 108.496,1.733c44.266,-1.022 87.958,-5.468 105.717,-6.909c75.332,-6.112 86.003,-10.561 161.226,-14.435c44.224,-2.277 76.957,-10.276 120.126,-13.723c16.071,-1.283 55.712,-6.483 71.832,-4.314c3.14,0.423 -2.049,0 0,0" style="fill:none;stroke:#000;stroke-width:1.5px;"/><path id="Top-line" serif:id="Top line" d="M164.522,183.13c6.362,1.992 21.593,4.765 27.989,7.963c4.681,2.341 26.87,10.792 43.388,14.289c24.436,5.173 46.423,13.554 50.711,13.926c22.8,1.975 50.27,9.449 72.986,11.375c24.689,2.094 51.928,4.255 71.812,1.475c11.755,-1.643 16.341,-2.7 31.208,-3.936c5.921,-0.492 29.171,-5.883 34.907,-7.123c22.201,-4.797 44.277,-14.044 65.751,-20.336c11.932,-3.496 107.716,-42.194 125.021,-48.016c5.911,-1.988 105.672,-43.221 110.139,-45.03c4.54,-1.839 43.927,-17.915 47.968,-20.332" style="fill:none;stroke:#000;stroke-width:1.5px;stroke-dasharray:1.5,7.5,0,0;"/></g><g id="Y-axis-lines" serif:id="Y axis lines"><path d="M157.782,97.853c-3.822,0 -16.472,0.103 -19.624,0.172" style="fill:none;stroke:#000;stroke-width:1.5px;"/><path d="M157.782,183.499c-3.822,0 -16.472,0.104 -19.624,0.172" style="fill:none;stroke:#000;stroke-width:1.5px;"/><path d="M157.782,271.399c-3.822,0 -16.472,0.104 -19.624,0.173" style="fill:none;stroke:#000;stroke-width:1.5px;"/><path d="M157.782,361.554c-3.822,0 -16.472,0.103 -19.624,0.172" style="fill:none;stroke:#000;stroke-width:1.5px;"/><path d="M157.782,446.073c-3.822,0 -16.472,0.104 -19.624,0.172" style="fill:none;stroke:#000;stroke-width:1.5px;"/></g><g id="X-axis-lines" serif:id="X axis lines"><path d="M164.408,488.989c0,-4.059 0.174,-21.29 0.174,-21.323" style="fill:none;stroke:#000;stroke-width:1.5px;"/><path d="M324.431,488.989c0,-4.059 0.174,-21.29 0.174,-21.323" style="fill:none;stroke:#000;stroke-width:1.5px;"/><path d="M481.074,488.989c0,-4.059 0.174,-21.29 0.174,-21.323" style="fill:none;stroke:#000;stroke-width:1.5px;"/><path d="M639.971,488.989c0,-4.059 0.174,-21.29 0.174,-21.323" style="fill:none;stroke:#000;stroke-width:1.5px;"/><path d="M801.121,488.989c0,-4.059 0.174,-21.29 0.174,-21.323" style="fill:none;stroke:#000;stroke-width:1.5px;"/><path d="M957.764,488.989c0,-4.059 0.174,-21.29 0.174,-21.323" style="fill:none;stroke:#000;stroke-width:1.5px;"/></g><g id="Y-Axis-Labels" serif:id="Y Axis Labels"><text x="89.245px" y="279.459px" style="font-family:'ArialMT', 'Arial', sans-serif;font-size:27.046px;">0.9</text><text x="89.245px" y="369.613px" style="font-family:'ArialMT', 'Arial', sans-serif;font-size:27.046px;">0.8</text><text x="89.245px" y="455.259px" style="font-family:'ArialMT', 'Arial', sans-serif;font-size:27.046px;">0.7</text><text x="89.245px" y="192.685px" style="font-family:'ArialMT', 'Arial', sans-serif;font-size:27.046px;">1.0</text><text x="89.245px" y="108.166px" style="font-family:'ArialMT', 'Arial', sans-serif;font-size:27.046px;">1.1</text></g><text x="416.304px" y="564.399px" style="font-family:'ArialMT', 'Arial', sans-serif;font-size:26.639px;">Cups of green tea per day</text><g transform="matrix(2.77556e-17,-1,1,2.77556e-17,-1811.68,562.256)"><text x="102.373px" y="1861.85px" style="font-family:'ArialMT', 'Arial', sans-serif;font-size:26.639px;">All cause mortality (Relative Risk)</text></g><g id="X-Axis-labels" serif:id="X Axis labels"><text x="317.634px" y="522.891px" style="font-family:'ArialMT', 'Arial', sans-serif;font-size:27.046px;">2</text><text x="474.277px" y="522.891px" style="font-family:'ArialMT', 'Arial', sans-serif;font-size:27.046px;">4</text><text x="634.301px" y="522.891px" style="font-family:'ArialMT', 'Arial', sans-serif;font-size:27.046px;">6</text><text x="793.197px" y="522.891px" style="font-family:'ArialMT', 'Arial', sans-serif;font-size:27.046px;">8</text><text x="941.951px" y="522.891px" style="font-family:'ArialMT', 'Arial', sans-serif;font-size:27.046px;">10</text><text x="157.611px" y="522.891px" style="font-family:'ArialMT', 'Arial', sans-serif;font-size:27.046px;">0</text></g></g><g id="Black-tea" serif:id="Black tea"><g id="Base-chart1" serif:id="Base chart"><path id="Y-Axis1" serif:id="Y Axis" d="M1143.16,52.206c0,146.131 -0.439,290.211 -0.439,438.469" style="fill:none;stroke:#000;stroke-width:1.5px;"/><path id="X-Axis1" serif:id="X Axis" d="M1889.92,491.361c-248.303,0 -493.122,0.108 -745.04,0.108" style="fill:none;stroke:#000;stroke-width:1.5px;"/></g><g id="Y-axis-lines1" serif:id="Y axis lines"><path d="M1161.03,65.141c-3.345,0 -14.414,0.091 -17.172,0.151" style="fill:none;stroke:#000;stroke-width:1.5px;"/><path d="M1161.03,127.265c-3.345,0 -14.414,0.091 -17.172,0.151" style="fill:none;stroke:#000;stroke-width:1.5px;"/><path d="M1161.03,190.375c-3.345,0 -14.414,0.091 -17.172,0.151" style="fill:none;stroke:#000;stroke-width:1.5px;"/><path d="M1161.03,255.458c-3.345,0 -14.414,0.09 -17.172,0.15" style="fill:none;stroke:#000;stroke-width:1.5px;"/><path d="M1161.03,322.512c-3.345,0 -14.414,0.091 -17.172,0.151" style="fill:none;stroke:#000;stroke-width:1.5px;"/><path d="M1161.03,390.553c-3.345,0 -14.414,0.09 -17.172,0.15" style="fill:none;stroke:#000;stroke-width:1.5px;"/><path d="M1161.03,452.677c-3.345,0 -14.414,0.09 -17.172,0.15" style="fill:none;stroke:#000;stroke-width:1.5px;"/></g><g id="X-axis-lines1" serif:id="X axis lines"><path d="M1166.83,490.229c0,-3.551 0.152,-18.629 0.152,-18.658" style="fill:none;stroke:#000;stroke-width:1.5px;"/><path d="M1267.41,490.229c0,-3.551 0.152,-18.629 0.152,-18.658" style="fill:none;stroke:#000;stroke-width:1.5px;"/><path d="M1365.03,490.229c0,-3.551 0.152,-18.629 0.152,-18.658" style="fill:none;stroke:#000;stroke-width:1.5px;"/><path d="M1464.63,490.229c0,-3.551 0.153,-18.629 0.153,-18.658" style="fill:none;stroke:#000;stroke-width:1.5px;"/><path d="M1564.22,490.229c0,-3.551 0.152,-18.629 0.152,-18.658" style="fill:none;stroke:#000;stroke-width:1.5px;"/><path d="M1662.83,490.229c0,-3.551 0.152,-18.629 0.152,-18.658" style="fill:none;stroke:#000;stroke-width:1.5px;"/><path d="M1763.41,490.229c0,-3.551 0.153,-18.629 0.153,-18.658" style="fill:none;stroke:#000;stroke-width:1.5px;"/><path d="M1861.04,490.229c0,-3.551 0.152,-18.629 0.152,-18.658" style="fill:none;stroke:#000;stroke-width:1.5px;"/></g><text x="1367.68px" y="558.639px" style="font-family:'ArialMT', 'Arial', sans-serif;font-size:26.639px;">Cups of black tea per day</text><g transform="matrix(2.77556e-17,-1,1,2.77556e-17,-784.016,1572.83)"><text x="1121.49px" y="1853.3px" style="font-family:'ArialMT', 'Arial', sans-serif;font-size:26.639px;">All cause mortality (Relative Risk)</text></g><g id="Y-acis-numbers" serif:id="Y acis numbers"><text x="1088.67px" y="71.637px" style="font-family:'ArialMT', 'Arial', sans-serif;font-size:23.666px;">1.10</text><text x="1088.67px" y="136.72px" style="font-family:'ArialMT', 'Arial', sans-serif;font-size:23.666px;">1.05</text><text x="1088.67px" y="197.858px" style="font-family:'ArialMT', 'Arial', sans-serif;font-size:23.666px;">1.00</text><text x="1088.67px" y="261.954px" style="font-family:'ArialMT', 'Arial', sans-serif;font-size:23.666px;">0.95</text><text x="1088.67px" y="330.98px" style="font-family:'ArialMT', 'Arial', sans-serif;font-size:23.666px;">0.90</text><text x="1088.67px" y="400.007px" style="font-family:'ArialMT', 'Arial', sans-serif;font-size:23.666px;">0.85</text><text x="1088.67px" y="462.131px" style="font-family:'ArialMT', 'Arial', sans-serif;font-size:23.666px;">0.80</text></g><g id="X-axis-labels" serif:id="X axis labels"><text x="1161.75px" y="517.63px" style="font-family:'ArialMT', 'Arial', sans-serif;font-size:22.526px;">0</text><text x="1260.36px" y="517.63px" style="font-family:'ArialMT', 'Arial', sans-serif;font-size:22.526px;">1</text><text x="1358.97px" y="517.63px" style="font-family:'ArialMT', 'Arial', sans-serif;font-size:22.526px;">2</text><text x="1459.55px" y="517.63px" style="font-family:'ArialMT', 'Arial', sans-serif;font-size:22.526px;">3</text><text x="1557.18px" y="517.63px" style="font-family:'ArialMT', 'Arial', sans-serif;font-size:22.526px;">4</text><text x="1656.77px" y="517.63px" style="font-family:'ArialMT', 'Arial', sans-serif;font-size:22.526px;">5</text><text x="1756.37px" y="517.63px" style="font-family:'ArialMT', 'Arial', sans-serif;font-size:22.526px;">6</text><text x="1854.98px" y="517.63px" style="font-family:'ArialMT', 'Arial', sans-serif;font-size:22.526px;">7</text></g><path id="Line-bottom" serif:id="Line bottom" d="M1167.02,190.522c0,-0.711 4.214,9.762 8.633,18.993c2.864,5.982 6.104,10.992 7.353,13.62c4.651,9.783 10.328,19.513 14.918,28.915c5.64,11.55 12.487,24.813 20.128,36.313c6.658,10.02 19.503,32.723 23.92,38.612c3.253,4.339 14.921,24.824 19.141,30.916c5.956,8.598 10.06,14.098 14.215,20.708c6.015,9.569 16.973,18.351 25.181,26.274c14.709,14.197 28.607,25.83 46.426,35.678c5.51,3.045 15.775,9.487 25.2,12.764c9.042,3.143 17.549,4.927 18.964,5.367c6.746,2.1 20.084,2.686 30.844,3.086c7.979,0.297 25.715,-0.439 30.875,-1.746c4.687,-1.188 20.748,-2.299 32.083,-5.227c10.775,-2.784 24.215,-6.291 30.631,-8.132c15.73,-4.513 29.869,-11.19 43.191,-17.093c8.588,-3.805 16.113,-6.531 25.923,-10.678c3.566,-1.508 33.905,-16.109 46.402,-20.811c13.972,-5.258 50.664,-19.184 54.623,-20.905c12.836,-5.579 77.606,-31.734 96.781,-39.022c14.283,-5.43 39.014,-14.192 56.796,-20.487c10.385,-3.677 13.83,-3.95 21.363,-9.604" style="fill:none;stroke:#000;stroke-width:1.5px;stroke-dasharray:1.5,7.5,0,0;"/><path id="Line-top" serif:id="Line top" d="M1166.84,190.672c2.979,0 13.232,9.028 23.693,16.747c8.36,6.17 16.968,11.092 20.673,13.715c4.869,3.446 9.915,6.781 14.459,9.644c5.262,3.315 10.257,5.42 15.87,7.999c8.588,3.945 19.829,9.914 29.064,12.917c19.24,6.255 38.928,8.796 58.487,8.83c8.692,0.016 22.254,-0.967 30.942,-3.198c6.929,-1.78 14.854,-5.063 21.082,-7.782c8.105,-3.537 11.125,-5.223 19.495,-8.714c8.018,-3.344 16.531,-7.098 24.055,-11.543c12.917,-7.629 31.275,-19.324 43.282,-28.924c2.875,-2.299 7.165,-5.92 10.505,-8.741c9.358,-7.903 18.003,-15.167 27.305,-23.334c4.63,-4.065 9.348,-8.875 13.652,-12.787c5.053,-4.594 11.33,-11.374 16.327,-16.536c6.738,-6.962 12.369,-11.622 18.317,-18.727c6.652,-7.944 14.283,-15.947 21.162,-23.792c2.565,-2.926 16.586,-19.696 19.499,-23.607c3.613,-4.85 8.078,-9.429 12.434,-13.922" style="fill:none;stroke:#000;stroke-width:1.5px;stroke-dasharray:1.5,7.5,0,0;"/><path id="Line-Middle" serif:id="Line Middle" d="M1167,190.61c5.936,6.533 9.726,14.697 15.157,21.304c3.331,4.053 6.732,8.74 9.371,12.069c4.114,5.19 8.633,10.509 11.412,15.467c2.426,4.33 18.019,20.983 21.214,24.469c2.678,2.921 13.273,16.414 17.58,19.644c3.126,2.344 14.885,15.996 18.376,18.582c3.794,2.809 21.709,17.894 26.828,20.454c5.375,2.687 12.894,7.804 18.301,10.867c9.242,5.236 15.741,8.596 25.672,12.876c11.034,4.756 12.659,3.556 24.259,4.64c8.641,0.807 25.712,1.815 38.523,0.135c6.547,-0.858 13.015,-1.266 17.351,-2.358c2.83,-0.712 7.045,-1.003 10.425,-1.877c3.308,-0.856 5.72,-1.683 8.623,-2.55c2.191,-0.655 12.682,-3.858 22.575,-8.12c15.149,-6.526 33.671,-17.508 44.122,-22.789c4.272,-2.159 20.789,-11.855 25.577,-15.423c7.446,-5.55 16.944,-11.183 25.399,-17.535c8.195,-6.157 15.336,-13.034 23.361,-18.386c7.084,-4.725 15.775,-13.042 21.565,-17.99c7.588,-6.485 12.08,-9.992 20.083,-16.045c23.49,-17.767 44.226,-37.804 67.522,-55.203c5.891,-4.401 11.844,-9.042 17.83,-13.333c4.378,-3.138 21.213,-18.236 41.019,-34.407c21.557,-17.601 46.461,-37.735 59.151,-48.453c5.864,-4.953 29.038,-24.207 29.37,-24.207" style="fill:none;stroke:#000;stroke-width:1.5px;"/></g></svg>